<svg xmlns="http://www.w3.org/2000/svg" xmlns:xlink="http://www.w3.org/1999/xlink" xml:space="preserve" style="shape-rendering:geometricPrecision;text-rendering:geometricPrecision;image-rendering:optimizeQuality;" viewBox="0 0 6.82666 8.533325000000001" x="0px" y="0px" fill-rule="evenodd" clip-rule="evenodd"><defs><style type="text/css">
  .fil1 {fill:none}
  .fil0 {fill:black;fill-rule:nonzero}
</style></defs><g><g><path class="fil0" d="M1.73012 1.18501l-0.404756 0c-0.00480709,0 -0.00924409,0.00202756 -0.0125039,0.0052874l-0.000311024 0c-0.00307087,0.00306693 -0.00498031,0.00749213 -0.00498031,0.0125039l0 0.612571c0,0.00501575 0.00190945,0.00943701 0.00498031,0.0125039l0.000311024 0c0.00325984,0.00325984 0.00769685,0.0052874 0.0125039,0.0052874l1.07437 0c0.00480709,0 0.00924409,-0.00202756 0.0125039,-0.0052874 0.00325984,-0.00325984 0.0052874,-0.00769685 0.0052874,-0.0125039l0 -0.452787 0 -0.159783 0 -0.189472 -0.607406 0 0 0.0916811 0 0.08 -0.08 0zm-0.404756 -0.16l0.324756 0 0 -0.0325866c0,-0.0379724 0.0156181,-0.0726575 0.0407992,-0.0979843l-3.93701e-006 -3.93701e-006 0.00015748 -0.000153543 0.000153543 -0.00015748 3.93701e-006 3.93701e-006c0.0253228,-0.0251811 0.0600118,-0.0407992 0.0979843,-0.0407992l0.649217 0c0.0383346,0 0.073126,0.015622 0.0982992,0.0407953 0.0251654,0.0251654 0.0407953,0.0599646 0.0407953,0.0982992l0 0.210378 0 0.159783 0 0.452787c0,0.0489764 -0.0199803,0.0934488 -0.0521614,0.12563 -0.0321811,0.0321811 -0.0766535,0.0521614 -0.12563,0.0521614l-1.07437 0c-0.0489764,0 -0.0934488,-0.0199803 -0.12563,-0.0521614l0.00015748 -0.00015748c-0.0322913,-0.0323583 -0.0523228,-0.0767835 -0.0523228,-0.125472l0 -0.612571c0,-0.0486929 0.0200315,-0.0931142 0.0523228,-0.125472l-0.00015748 -0.00015748c0.0321811,-0.0321811 0.0766535,-0.0521614 0.12563,-0.0521614z"/><path class="fil0" d="M1.73012 5.16517l-0.404756 0c-0.00480709,0 -0.00924409,0.00202756 -0.0125039,0.0052874l-0.000311024 0c-0.00307087,0.00306693 -0.00498031,0.00748819 -0.00498031,0.0125039l0 0.612571c0,0.00501181 0.00190945,0.00943701 0.00498031,0.0125039l0.000311024 0c0.00325984,0.00325984 0.00769685,0.0052874 0.0125039,0.0052874l1.07437 0c0.00480709,0 0.00924409,-0.00202756 0.0125039,-0.0052874 0.00325984,-0.00325984 0.0052874,-0.00769685 0.0052874,-0.0125039l0 -0.452787 0 -0.159783 0 -0.189472 -0.607406 0 0 0.0916811 0 0.08 -0.08 0zm-0.404756 -0.16l0.324756 0 0 -0.0325866c0,-0.0383346 0.015622,-0.073126 0.0407953,-0.0982992 0.0251654,-0.0251654 0.0599646,-0.0407953 0.0982992,-0.0407953l0.649217 0c0.038126,0 0.072815,0.0156299 0.0979882,0.0407953l0.000311024 0.000311024c0.0251654,0.0251732 0.0407953,0.0598622 0.0407953,0.0979882l0 0.210378 0 0.159783 0 0.452787c0,0.0489764 -0.0199803,0.0934488 -0.0521614,0.12563 -0.0321811,0.0321811 -0.0766535,0.0521614 -0.12563,0.0521614l-1.07437 0c-0.0489764,0 -0.0934488,-0.0199803 -0.12563,-0.0521614l0.00015748 -0.00015748c-0.0322913,-0.0323583 -0.0523228,-0.0767795 -0.0523228,-0.125472l0 -0.612571c0,-0.048689 0.0200315,-0.0931142 0.0523228,-0.125472l-0.00015748 -0.00015748c0.0321811,-0.0321811 0.0766535,-0.0521614 0.12563,-0.0521614z"/><path class="fil0" d="M1.73012 3.17509l-0.404756 0c-0.00480709,0 -0.00924409,0.00202756 -0.0125039,0.0052874l-0.000311024 0c-0.00307087,0.00306693 -0.00498031,0.00749213 -0.00498031,0.0125039l0 0.612571c0,0.00501181 0.00190945,0.00943701 0.00498031,0.0125039l0.000311024 0c0.00325984,0.00325984 0.00769685,0.0052874 0.0125039,0.0052874l1.07437 0c0.00480709,0 0.00924409,-0.00202756 0.0125039,-0.0052874 0.00325984,-0.00325984 0.0052874,-0.00769685 0.0052874,-0.0125039l0 -0.452787 0 -0.159783 0 -0.189472 -0.607406 0 0 0.0916811 0 0.08 -0.08 0zm-0.404756 -0.16l0.324756 0 0 -0.0325866c0,-0.0379724 0.0156181,-0.0726575 0.0407992,-0.0979843l-3.93701e-006 -3.93701e-006 0.00015748 -0.000153543 0.000153543 -0.00015748 3.93701e-006 3.93701e-006c0.0253228,-0.0251811 0.0600118,-0.0407992 0.0979843,-0.0407992l0.649217 0c0.0383346,0 0.073126,0.015622 0.0982992,0.0407953 0.0251654,0.0251654 0.0407953,0.0599646 0.0407953,0.0982992l0 0.210378 0 0.159783 0 0.452787c0,0.0489764 -0.0199803,0.0934488 -0.0521614,0.12563 -0.0321811,0.0321811 -0.0766535,0.0521614 -0.12563,0.0521614l-1.07437 0c-0.0489764,0 -0.0934488,-0.0199803 -0.12563,-0.0521614l0.00015748 -0.00015748c-0.0322913,-0.0323583 -0.0523228,-0.0767795 -0.0523228,-0.125472l0 -0.612571c0,-0.0486929 0.0200315,-0.0931142 0.0523228,-0.125472l-0.00015748 -0.00015748c0.0321811,-0.0321811 0.0766535,-0.0521614 0.12563,-0.0521614z"/><polygon class="fil0" points="2.98086,1.42325 2.98086,2.87154 3.99834,2.87154 3.99834,3.03154 2.98086,3.03154 2.98086,3.33333 2.98086,3.41333 2.98086,3.49333 2.98086,5.40341 2.98086,5.48341 2.90086,5.48341 2.49753,5.48341 2.49753,5.32341 2.82086,5.32341 2.82086,3.49333 2.49753,3.49333 2.49753,3.33333 2.82086,3.33333 2.82086,3.03154 2.82086,2.95154 2.82086,2.87154 2.82086,1.50325 2.49753,1.50325 2.49753,1.34325 2.90086,1.34325 2.98086,1.34325 "/><path class="fil0" d="M4.6339 2.63389l-0.509071 0c-0.0117402,0 -0.0224764,0.0048622 -0.0303031,0.0126929 -0.00783071,0.00783071 -0.0126929,0.018563 -0.0126929,0.0303031l0 0.770445c0,0.0117402 0.0048622,0.0224724 0.0126929,0.0303031 0.00782677,0.00783071 0.018563,0.0126929 0.0303031,0.0126929l1.35126 0c0.0117402,0 0.0224764,-0.0048622 0.0303031,-0.0126929 0.00783071,-0.00782677 0.0126929,-0.018563 0.0126929,-0.0303031l0 -0.569484 0 -0.200961 0 -0.258925 -0.805189 0 0 0.135929 0 0.08 -0.08 0zm-0.509071 -0.16l0.429071 0 0 -0.0616063c0,-0.0425276 0.0173386,-0.081122 0.0452717,-0.109055 0.0279252,-0.0279252 0.0665315,-0.0452677 0.109055,-0.0452677l0.816539 0c0.042315,0 0.080811,0.0173425 0.108744,0.0452677l0.000311024 0.000311024c0.0279252,0.0279331 0.0452677,0.0664291 0.0452677,0.108744l0 0.264602 0 0.200961 0 0.569484c0,0.0559134 -0.022811,0.106681 -0.0595669,0.143429 -0.036748,0.0367559 -0.0875157,0.0595669 -0.143429,0.0595669l-1.35126 0c-0.0559016,0 -0.106681,-0.022811 -0.143429,-0.0595669 -0.036748,-0.036748 -0.0595669,-0.0875197 -0.0595669,-0.143429l0 -0.770445c0,-0.0559094 0.0228189,-0.106681 0.0595669,-0.143429 0.036748,-0.0367559 0.0875276,-0.0595669 0.143429,-0.0595669z"/></g></g><rect class="fil1" width="6.82666" height="6.82666"/><text x="0" y="21.82666" fill="#000000" font-size="5px" font-weight="bold" font-family="'Helvetica Neue', Helvetica, Arial-Unicode, Arial, Sans-serif">Created by IYIKON</text><text x="0" y="26.82666" fill="#000000" font-size="5px" font-weight="bold" font-family="'Helvetica Neue', Helvetica, Arial-Unicode, Arial, Sans-serif">from the Noun Project</text></svg>
