<svg xmlns="http://www.w3.org/2000/svg" xmlns:xlink="http://www.w3.org/1999/xlink" viewBox="0 0 50 50" version="1.1">
<g id="surface1">
<path style=" " d="M 7.53125 1 C 6.566406 1 5.867188 1.542969 5.5 2.375 L 0.3125 13.9375 C 0.308594 13.945313 0.316406 13.960938 0.3125 13.96875 C 0.277344 14.019531 0.246094 14.070313 0.21875 14.125 C 0.0859375 14.390625 0 14.6875 0 15 L 0 48 C 0 49.09375 0.90625 50 2 50 L 48 50 C 49.09375 50 50 49.09375 50 48 L 50 15 C 50 14.640625 49.890625 14.292969 49.71875 14 C 49.707031 13.988281 49.699219 13.980469 49.6875 13.96875 L 49.65625 13.875 C 49.648438 13.863281 49.632813 13.855469 49.625 13.84375 L 44.5 2.375 C 44.132813 1.542969 43.433594 1 42.46875 1 Z M 7.53125 3 L 42.46875 3 C 42.34375 3 42.644531 3.160156 42.65625 3.1875 L 47.03125 13 L 2.90625 13 L 7.34375 3.1875 C 7.355469 3.160156 7.65625 3 7.53125 3 Z M 2 15 L 48 15 C 48 15.011719 48 15.019531 48 15.03125 L 48 48 L 2 48 Z M 20 19 C 18.90625 19 18 19.90625 18 21 L 18 43 C 18 44.09375 18.90625 45 20 45 L 26 45 C 26.359375 45 26.707031 44.890625 27 44.71875 C 27.292969 44.890625 27.640625 45 28 45 L 34 45 C 34.359375 45 34.707031 44.890625 35 44.71875 C 35.292969 44.890625 35.640625 45 36 45 L 42 45 C 43.09375 45 44 44.09375 44 43 L 44 21 C 44 19.90625 43.09375 19 42 19 L 36 19 C 35.640625 19 35.292969 19.109375 35 19.28125 C 34.707031 19.109375 34.359375 19 34 19 L 28 19 C 27.640625 19 27.292969 19.109375 27 19.28125 C 26.707031 19.109375 26.359375 19 26 19 Z M 10 20 C 8.894531 20 8 20.894531 8 22 C 8 23.105469 8.894531 24 10 24 C 11.105469 24 12 23.105469 12 22 C 12 20.894531 11.105469 20 10 20 Z M 20 21 L 26 21 L 26 43 L 20 43 Z M 28 21 L 34 21 L 34 43 L 28 43 Z M 36 21 L 42 21 L 42 43 L 36 43 Z M 23 22 C 21.894531 22 21 22.894531 21 24 C 21 25.105469 21.894531 26 23 26 C 24.105469 26 25 25.105469 25 24 C 25 22.894531 24.105469 22 23 22 Z M 31 22 C 29.894531 22 29 22.894531 29 24 C 29 25.105469 29.894531 26 31 26 C 32.105469 26 33 25.105469 33 24 C 33 22.894531 32.105469 22 31 22 Z M 39 22 C 37.894531 22 37 22.894531 37 24 C 37 25.105469 37.894531 26 39 26 C 40.105469 26 41 25.105469 41 24 C 41 22.894531 40.105469 22 39 22 Z M 10 26 C 8.894531 26 8 26.894531 8 28 C 8 29.105469 8.894531 30 10 30 C 11.105469 30 12 29.105469 12 28 C 12 26.894531 11.105469 26 10 26 Z "></path>
</g>
</svg>
