<svg xmlns="http://www.w3.org/2000/svg" xmlns:xlink="http://www.w3.org/1999/xlink" version="1.1" x="0px" y="0px" viewBox="0 0 100 125" enable-background="new 0 0 100 100" xml:space="preserve"><g><path d="M65.52,40.5c0-0.229-0.076-0.439-0.205-0.608l-1.92-3.839c-0.17-0.339-0.516-0.553-0.895-0.553h-24   c-0.379,0-0.725,0.214-0.895,0.553l-2,4c-0.155,0.31-0.139,0.678,0.044,0.973c0.043,0.069,0.095,0.131,0.151,0.187   C35.611,41.611,35.5,42.045,35.5,42.5v4c0,0.748,0.282,1.448,0.779,2c-0.497,0.551-0.779,1.251-0.779,2v4   c0,0.748,0.282,1.448,0.779,2c-0.497,0.552-0.779,1.251-0.779,2v4c0,0.801,0.312,1.555,0.879,2.121S37.699,65.5,38.5,65.5h24   c0.801,0,1.555-0.312,2.121-0.879S65.5,63.301,65.5,62.5v-4c0-0.749-0.282-1.448-0.779-2c0.497-0.552,0.779-1.252,0.779-2v-4   c0-0.749-0.282-1.449-0.779-2c0.497-0.552,0.779-1.252,0.779-2v-4c0-0.451-0.108-0.882-0.296-1.277   C65.396,41.04,65.52,40.786,65.52,40.5z M39.118,37.5h22.764l1,2H62.5h-24h-0.382L39.118,37.5z M63.5,62.5   c0,0.267-0.104,0.518-0.293,0.707c-0.189,0.188-0.44,0.293-0.707,0.293h-24c-0.267,0-0.518-0.104-0.707-0.293   c-0.188-0.189-0.293-0.44-0.293-0.707v-4c0-0.268,0.104-0.518,0.293-0.707S38.233,57.5,38.5,57.5h2h20h2   c0.267,0,0.518,0.104,0.707,0.293S63.5,58.232,63.5,58.5V62.5z M63.5,54.5c0,0.267-0.104,0.518-0.293,0.707   c-0.189,0.188-0.44,0.293-0.707,0.293h-24c-0.267,0-0.518-0.104-0.707-0.293c-0.188-0.189-0.293-0.44-0.293-0.707v-4   c0-0.268,0.104-0.518,0.293-0.707S38.233,49.5,38.5,49.5h2h20h2c0.267,0,0.518,0.104,0.707,0.293S63.5,50.232,63.5,50.5V54.5z    M63.5,46.5c0,0.267-0.104,0.518-0.293,0.707c-0.189,0.188-0.44,0.293-0.707,0.293h-24c-0.267,0-0.518-0.104-0.707-0.293   c-0.188-0.189-0.293-0.44-0.293-0.707v-4c0-0.267,0.104-0.518,0.293-0.707S38.233,41.5,38.5,41.5h2h20h2   c0.267,0,0.518,0.104,0.707,0.293c0.189,0.188,0.293,0.439,0.293,0.707V46.5z"/><rect x="39.5" y="43.5" width="2" height="2"/><rect x="39.5" y="51.5" width="2" height="2"/><rect x="39.5" y="59.5" width="2" height="2"/></g><text x="0" y="115" fill="#000000" font-size="5px" font-weight="bold" font-family="'Helvetica Neue', Helvetica, Arial-Unicode, Arial, Sans-serif">Created by Fabiano Coelho</text><text x="0" y="120" fill="#000000" font-size="5px" font-weight="bold" font-family="'Helvetica Neue', Helvetica, Arial-Unicode, Arial, Sans-serif">from the Noun Project</text></svg>